<?xml version="1.0" standalone="no"?>
<svg viewBox="0 0 200 200" xmlns="http://www.w3.org/2000/svg">
  <path fill="#06D6A0" d="M44.9,-74.8C58.2,-70,69.2,-58.1,70.7,-44.5C72.1,-30.9,64,-15.4,63.6,-0.2C63.2,15,70.5,29.9,61.8,31C53.1,32,28.4,19.2,15.4,25.6C2.4,32,1.2,57.6,-5.7,67.5C-12.6,77.4,-25.3,71.5,-34.8,63.1C-44.3,54.7,-50.6,43.8,-46.3,32.9C-42,22,-27,11,-31.3,-2.5C-35.7,-16,-59.4,-32,-61,-38.1C-62.5,-44.2,-41.8,-40.4,-28,-44.9C-14.1,-49.4,-7,-62.1,4.4,-69.7C15.8,-77.2,31.5,-79.5,44.9,-74.8Z" transform="translate(100 100)" />
</svg>
