<?xml version="1.0" standalone="no"?>
<svg viewBox="0 0 200 200" xmlns="http://www.w3.org/2000/svg">
  <path fill="#06D6A0" d="M33.4,-73.5C34.2,-57.5,19.3,-30,15.4,-15.9C11.4,-1.7,18.4,-0.9,29.1,6.2C39.8,13.2,54.3,26.5,58.1,40.4C62,54.3,55.1,69,43.6,67.8C32.2,66.6,16.1,49.6,1.6,46.9C-12.9,44.1,-25.8,55.6,-31.3,53.3C-36.9,51.1,-35.1,35.1,-42.4,24C-49.8,12.8,-66.3,6.4,-73.2,-3.9C-80,-14.3,-77.1,-28.6,-71.1,-42C-65,-55.5,-55.9,-68.2,-43.5,-77.5C-31.1,-86.8,-15.6,-92.8,0.4,-93.5C16.3,-94.2,32.7,-89.6,33.4,-73.5Z" transform="translate(100 100)" />
</svg>
